<svg width="79px" height="18px" viewBox="0 0 79 18" version="1.1" 
  xmlns="http://www.w3.org/2000/svg" 
  xmlns:xlink="http://www.w3.org/1999/xlink">
  <g id="App" stroke="none" stroke-width="1" fill="none" fill-rule="evenodd">
    <g id="1.1-Sign-in" transform="translate(-186.000000, -508.000000)" fill="#FFFFFF">
      <g id="Left">
        <g id="Logo" transform="translate(163.000000, 255.000000)">
          <g id="btn-md-stroke-pink" transform="translate(0.000000, 243.000000)">
            <path d="M33.7114819,13.8742619 C35.6751429,13.8742619 36.9308229,15.8195267 36.9308229,15.8195267 C36.9308229,15.8195267 35.0153295,16.8837714 35.0153295,19.1950576 C35.0153295,21.9382919 37.4216343,22.7362614 37.4216343,22.7362614 C37.4216343,22.7362614 35.5223352,27.3502719 33.3896724,27.3502719 C32.1904648,27.3502719 32.1103238,26.6439148 30.51664,26.6439148 C29.1326514,26.6439148 28.6659238,27.3502719 27.6116343,27.3502719 C25.5993905,27.3502719 23,22.8527033 23,19.1950576 C23,15.3957124 25.631779,13.8742619 27.28152,13.8742619 C28.7302857,13.8742619 29.3336267,14.7471481 30.5004457,14.7471481 C31.4824838,14.7471481 32.2552419,13.8742619 33.7114819,13.8742619 Z M33.3738933,10 C33.6633143,11.8622143 32.0135733,14.1653667 30.0420229,14.09045 C29.7521867,11.7209429 31.87696,10.1250038 33.3738933,10 Z M48.2596093,14.8447848 L49.5992315,14.8447848 L53.1587991,24.171505 L51.8191769,24.171505 L50.8240289,21.3630388 L46.9710203,21.3630388 L45.9503558,24.171505 L44.7128,24.171505 L48.2596093,14.8447848 Z M47.3537695,20.3180281 L50.4412797,20.3180281 L48.9230412,15.9681712 L48.8975246,15.9681712 L47.3537695,20.3180281 Z M53.9115392,17.4181235 L54.9959953,17.4181235 L54.9959953,18.3325079 L55.0215119,18.3325079 C55.2001291,17.9580438 55.480809,17.6859084 55.8635601,17.5160933 C56.2463112,17.3462782 56.6673311,17.2613719 57.1266325,17.2613719 C57.6369673,17.2613719 58.0813772,17.3571636 58.4598755,17.5487499 C58.8383739,17.7403361 59.1530756,17.9994091 59.4039902,18.3259766 C59.6549049,18.652544 59.8441512,19.0291795 59.9717349,19.4558943 C60.0993186,19.8826092 60.1631095,20.3354426 60.1631095,20.8144082 C60.1631095,21.2933738 60.101445,21.7462073 59.978114,22.1729221 C59.8547831,22.5996369 59.6676632,22.9719182 59.4167485,23.2897772 C59.1658339,23.6076362 58.8511322,23.8580009 58.4726338,24.0408786 C58.0941355,24.2237564 57.6539783,24.3151939 57.1521491,24.3151939 C56.9905431,24.3151939 56.8098022,24.2977773 56.6099211,24.2629434 C56.4100399,24.2281096 56.2122881,24.1715054 56.0166598,24.0931292 C55.8210314,24.014753 55.6360378,23.9080759 55.4616735,23.7730947 C55.2873091,23.6381134 55.14059,23.470478 55.0215119,23.2701833 L54.9959953,23.2701833 L54.9959953,26.7448437 L53.9115392,26.7448437 L53.9115392,17.4181235 Z M59.0148619,20.7360324 C59.0148619,20.4225276 58.974461,20.1155588 58.893658,19.8151168 C58.812855,19.5146747 58.6895259,19.2468934 58.5236671,19.0117648 C58.3578083,18.7766362 58.1451719,18.589407 57.8857517,18.4500716 C57.6263315,18.3107361 57.3222616,18.2410694 56.9735328,18.2410694 C56.6077928,18.2410694 56.2973438,18.3150903 56.0421764,18.4631342 C55.787009,18.6111781 55.5786254,18.8049386 55.4170194,19.0444214 C55.2554134,19.2839042 55.1384634,19.5560397 55.0661659,19.860836 C54.9938685,20.1656323 54.9577203,20.4747782 54.9577203,20.7882829 C54.9577203,21.1192046 54.9959949,21.439236 55.0725451,21.7483865 C55.1490953,22.057537 55.270298,22.3296725 55.4361568,22.5648011 C55.6020157,22.7999297 55.8167783,22.9893359 56.0804513,23.1330256 C56.3441243,23.2767153 56.6630788,23.3485591 57.0373243,23.3485591 C57.4115699,23.3485591 57.7241453,23.2745382 57.9750599,23.1264943 C58.2259745,22.9784504 58.427979,22.7825129 58.5810795,22.5386758 C58.7341799,22.2948388 58.8447508,22.016172 58.9127954,21.7026673 C58.9808401,21.3891625 59.0148619,21.0669541 59.0148619,20.7360324 Z M61.4772151,17.4181235 L62.5616712,17.4181235 L62.5616712,18.3325079 L62.5871878,18.3325079 C62.765805,17.9580438 63.0464849,17.6859084 63.429236,17.5160933 C63.8119871,17.3462782 64.2330071,17.2613719 64.6923084,17.2613719 C65.2026432,17.2613719 65.6470531,17.3571636 66.0255515,17.5487499 C66.4040498,17.7403361 66.7187515,17.9994091 66.9696662,18.3259766 C67.2205808,18.652544 67.4098271,19.0291795 67.5374108,19.4558943 C67.6649945,19.8826092 67.7287854,20.3354426 67.7287854,20.8144082 C67.7287854,21.2933738 67.6671209,21.7462073 67.54379,22.1729221 C67.420459,22.5996369 67.2333391,22.9719182 66.9824245,23.2897772 C66.7315098,23.6076362 66.4168081,23.8580009 66.0383098,24.0408786 C65.6598114,24.2237564 65.2196543,24.3151939 64.717825,24.3151939 C64.556219,24.3151939 64.3754781,24.2977773 64.175597,24.2629434 C63.9757158,24.2281096 63.7779641,24.1715054 63.5823357,24.0931292 C63.3867074,24.014753 63.2017138,23.9080759 63.0273494,23.7730947 C62.852985,23.6381134 62.7062659,23.470478 62.5871878,23.2701833 L62.5616712,23.2701833 L62.5616712,26.7448437 L61.4772151,26.7448437 L61.4772151,17.4181235 Z M66.5805378,20.7360324 C66.5805378,20.4225276 66.5401369,20.1155588 66.4593339,19.8151168 C66.3785309,19.5146747 66.2552018,19.2468934 66.089343,19.0117648 C65.9234842,18.7766362 65.7108479,18.589407 65.4514277,18.4500716 C65.1920074,18.3107361 64.8879375,18.2410694 64.5392087,18.2410694 C64.1734688,18.2410694 63.8630197,18.3150903 63.6078523,18.4631342 C63.3526849,18.6111781 63.1443013,18.8049386 62.9826953,19.0444214 C62.8210893,19.2839042 62.7041393,19.5560397 62.6318419,19.860836 C62.5595444,20.1656323 62.5233962,20.4747782 62.5233962,20.7882829 C62.5233962,21.1192046 62.5616708,21.439236 62.638221,21.7483865 C62.7147712,22.057537 62.8359739,22.3296725 63.0018328,22.5648011 C63.1676916,22.7999297 63.3824543,22.9893359 63.6461272,23.1330256 C63.9098002,23.2767153 64.2287547,23.3485591 64.6030003,23.3485591 C64.9772458,23.3485591 65.2898212,23.2745382 65.5407358,23.1264943 C65.7916504,22.9784504 65.9936549,22.7825129 66.1467554,22.5386758 C66.2998558,22.2948388 66.4104267,22.016172 66.4784713,21.7026673 C66.546516,21.3891625 66.5805378,21.0669541 66.5805378,20.7360324 Z M77.9992224,17.5748751 C77.9311777,16.9043233 77.6951514,16.4188336 77.2911363,16.1183915 C76.8871213,15.8179494 76.370415,15.6677307 75.7410021,15.6677307 C75.4858346,15.6677307 75.2349238,15.6938557 74.988262,15.7461065 C74.7416001,15.7983573 74.5225847,15.8854406 74.3312092,16.0073591 C74.1398336,16.1292777 73.9867355,16.2925589 73.8719101,16.4972079 C73.7570848,16.7018568 73.699673,16.9565756 73.699673,17.2613719 C73.699673,17.5487513 73.7826011,17.7816993 73.94846,17.9602228 C74.1143188,18.1387464 74.3354605,18.284611 74.6118919,18.397821 C74.8883233,18.5110311 75.2008987,18.6046457 75.5496275,18.6786677 C75.8983563,18.7526896 76.2534589,18.8332417 76.6149461,18.9203264 C76.9764332,19.007411 77.3315359,19.109734 77.6802647,19.2272983 C78.0289935,19.3448625 78.3415689,19.5037897 78.6180002,19.7040844 C78.8944316,19.9043791 79.1155734,20.1569208 79.2814322,20.4617171 C79.447291,20.7665134 79.5302192,21.1496802 79.5302192,21.6112288 C79.5302192,22.1076114 79.4217746,22.5321427 79.2048823,22.8848356 C78.98799,23.2375285 78.7094365,23.5249035 78.3692133,23.7469694 C78.02899,23.9690353 77.648371,24.1301395 77.2273448,24.2302868 C76.8063186,24.3304342 76.387425,24.3805071 75.9706516,24.3805071 C75.4603168,24.3805071 74.9776323,24.3151946 74.5225838,24.1845676 C74.0675352,24.0539406 73.6677789,23.855826 73.3233029,23.5902178 C72.9788269,23.3246096 72.7066524,22.9849845 72.5067713,22.5713324 C72.3068902,22.1576803 72.2069511,21.6678364 72.2069511,21.1017861 L73.3551987,21.1017861 C73.3551987,21.4936671 73.4296214,21.8311151 73.5784691,22.1141402 C73.7273167,22.3971654 73.9229421,22.6301133 74.1653512,22.8129911 C74.4077602,22.9958689 74.6905665,23.1308481 75.0137786,23.2179327 C75.3369906,23.3050174 75.6687033,23.3485591 76.0089265,23.3485591 C76.2811051,23.3485591 76.5554059,23.3224341 76.8318373,23.2701833 C77.1082687,23.2179325 77.3570531,23.128672 77.5781982,23.0023993 C77.7993433,22.8761265 77.9779578,22.7041369 78.1140471,22.4864253 C78.2501364,22.2687136 78.31818,21.9900469 78.31818,21.6504167 C78.31818,21.3282035 78.2352519,21.0669535 78.069393,20.8666587 C77.9035342,20.666364 77.6823925,20.5030827 77.4059611,20.37681 C77.1295297,20.2505372 76.8169543,20.1482143 76.4682255,20.0698381 C76.1194967,19.9914619 75.7643941,19.9109098 75.4029069,19.8281794 C75.0414198,19.745449 74.6863171,19.6496573 74.3375883,19.5408015 C73.9888595,19.4319456 73.6762841,19.2882581 73.3998528,19.1097346 C73.1234214,18.931211 72.9022796,18.7004401 72.7364208,18.417415 C72.570562,18.1343899 72.4876338,17.7795252 72.4876338,17.3528104 C72.4876338,16.8825532 72.5811938,16.4754386 72.7683166,16.1314542 C72.9554394,15.7874698 73.2042238,15.5044489 73.5146775,15.282383 C73.8251312,15.0603171 74.1781075,14.8948587 74.573617,14.7860029 C74.9691265,14.6771471 75.3752618,14.62272 75.7920353,14.62272 C76.2598422,14.62272 76.6936203,14.6793242 77.0933826,14.7925342 C77.4931449,14.9057443 77.8439948,15.0842652 78.1459429,15.3281022 C78.447891,15.5719392 78.6860437,15.8789081 78.8604081,16.2490179 C79.0347725,16.6191276 79.1304588,17.0610757 79.14747,17.5748751 L77.9992224,17.5748751 Z M82.3242884,17.4181235 L83.6383939,17.4181235 L83.6383939,18.397821 L82.3242884,18.397821 L82.3242884,22.5909263 C82.3242884,22.7215533 82.3349202,22.8260534 82.3561841,22.9044295 C82.3774481,22.9828057 82.417849,23.0437641 82.477388,23.0873064 C82.5369271,23.1308487 82.6198553,23.1591508 82.726175,23.1722135 C82.8324948,23.1852762 82.9707084,23.1918075 83.14082,23.1918075 L83.6383939,23.1918075 L83.6383939,24.171505 L82.809104,24.171505 C82.5284199,24.171505 82.2881408,24.1519112 82.0882597,24.1127231 C81.8883785,24.073535 81.7267749,24.0016913 81.603444,23.8971897 C81.4801131,23.7926881 81.3886795,23.6446464 81.3291404,23.4530601 C81.2696014,23.2614739 81.2398323,23.0089322 81.2398323,22.6954274 L81.2398323,18.397821 L80.1171013,18.397821 L80.1171013,17.4181235 L81.2398323,17.4181235 L81.2398323,15.3934154 L82.3242884,15.3934154 L82.3242884,17.4181235 Z M84.4804422,20.8013456 C84.4804422,20.304963 84.5484858,19.8412442 84.6845751,19.4101751 C84.8206644,18.9791061 85.0247953,18.6046477 85.2969738,18.2867887 C85.5691524,17.9689297 85.9051178,17.718565 86.3048801,17.5356872 C86.7046423,17.3528095 87.1639368,17.2613719 87.6827772,17.2613719 C88.2101232,17.2613719 88.671544,17.3528095 89.0670535,17.5356872 C89.462563,17.718565 89.796402,17.9689297 90.0685806,18.2867887 C90.3407591,18.6046477 90.54489,18.9791061 90.6809793,19.4101751 C90.8170686,19.8412442 90.8851122,20.304963 90.8851122,20.8013456 C90.8851122,21.2977281 90.8170686,21.7592699 90.6809793,22.1859847 C90.54489,22.6126995 90.3407591,22.9849809 90.0685806,23.3028399 C89.796402,23.6206989 89.462563,23.8688864 89.0670535,24.04741 C88.671544,24.2259335 88.2101232,24.3151939 87.6827772,24.3151939 C87.1639368,24.3151939 86.7046423,24.2259335 86.3048801,24.04741 C85.9051178,23.8688864 85.5691524,23.6206989 85.2969738,23.3028399 C85.0247953,22.9849809 84.8206644,22.6126995 84.6845751,22.1859847 C84.5484858,21.7592699 84.4804422,21.2977281 84.4804422,20.8013456 Z M85.6286898,20.8013456 C85.6286898,21.2106435 85.6818489,21.5742165 85.7881686,21.8920755 C85.8944884,22.2099345 86.0412075,22.4755387 86.2283302,22.6888961 C86.415453,22.9022535 86.6344684,23.0655348 86.885383,23.1787448 C87.1362976,23.2919549 87.402093,23.3485591 87.6827772,23.3485591 C87.9634613,23.3485591 88.2292567,23.2919549 88.4801714,23.1787448 C88.731086,23.0655348 88.9501014,22.9022535 89.1372242,22.6888961 C89.3243469,22.4755387 89.471066,22.2099345 89.5773857,21.8920755 C89.6837055,21.5742165 89.7368646,21.2106435 89.7368646,20.8013456 C89.7368646,20.3920477 89.6837055,20.0284747 89.5773857,19.7106157 C89.471066,19.3927567 89.3243469,19.1249754 89.1372242,18.9072637 C88.9501014,18.6895521 88.731086,18.5240937 88.4801714,18.4108837 C88.2292567,18.2976736 87.9634613,18.2410694 87.6827772,18.2410694 C87.402093,18.2410694 87.1362976,18.2976736 86.885383,18.4108837 C86.6344684,18.5240937 86.415453,18.6895521 86.2283302,18.9072637 C86.0412075,19.1249754 85.8944884,19.3927567 85.7881686,19.7106157 C85.6818489,20.0284747 85.6286898,20.3920477 85.6286898,20.8013456 Z M92.1226679,17.4181235 L93.1433325,17.4181235 L93.1433325,18.8419506 L93.1688491,18.8419506 C93.4325221,18.2933172 93.7557293,17.8883796 94.1384804,17.6271257 C94.5212315,17.3658717 95.0060423,17.243955 95.5929274,17.2613719 L95.5929274,18.4370089 C95.1591428,18.4370089 94.7891556,18.4979673 94.4829547,18.6198858 C94.1767538,18.7418043 93.9300957,18.9203252 93.7429729,19.1554538 C93.5558501,19.3905823 93.4197629,19.6757803 93.3347071,20.0110563 C93.2496513,20.3463322 93.207124,20.731676 93.207124,21.1670993 L93.207124,24.171505 L92.1226679,24.171505 L92.1226679,17.4181235 Z M101.806223,22.0292331 C101.661628,22.7868696 101.342673,23.3572656 100.84935,23.7404381 C100.356026,24.1236106 99.7351281,24.3151939 98.986637,24.3151939 C98.459291,24.3151939 98.0021229,24.2281106 97.615119,24.0539413 C97.2281151,23.879772 96.9027815,23.6359386 96.6391085,23.3224338 C96.3754356,23.008929 96.1776838,22.6344706 96.0458473,22.1990473 C95.9140108,21.7636241 95.8395881,21.2890198 95.8225769,20.7752203 C95.8225769,20.2614208 95.899126,19.7911707 96.0522264,19.3644559 C96.2053269,18.9377411 96.4200896,18.5676368 96.6965209,18.2541321 C96.9729523,17.9406273 97.3004122,17.6967939 97.6789105,17.5226246 C98.0574089,17.3484553 98.4720497,17.2613719 98.9228455,17.2613719 C99.5097305,17.2613719 99.9966677,17.3854657 100.383672,17.633657 C100.770675,17.8818483 101.081125,18.1975254 101.315028,18.5806979 C101.548931,18.9638704 101.710535,19.3818705 101.799844,19.8347107 C101.889152,20.2875509 101.9253,20.7186135 101.908289,21.1279114 L96.9708245,21.1279114 C96.9623189,21.4239992 96.9963408,21.7048431 97.072891,21.9704513 C97.1494412,22.2360595 97.2727703,22.4711845 97.4428819,22.6758335 C97.6129935,22.8804824 97.8298825,23.0437637 98.0935555,23.1656822 C98.3572285,23.2876007 98.6676775,23.3485591 99.0249119,23.3485591 C99.4842133,23.3485591 99.8605795,23.2397049 100.154022,23.0219932 C100.447465,22.8042816 100.640964,22.4733649 100.734525,22.0292331 L101.806223,22.0292331 Z M100.760042,20.1482139 C100.74303,19.8869599 100.685619,19.6387724 100.587804,19.4036438 C100.48999,19.1685152 100.358156,18.9660464 100.192297,18.7962314 C100.026438,18.6264163 99.8308127,18.4914371 99.6054149,18.3912897 C99.380017,18.2911424 99.1312325,18.2410694 98.8590539,18.2410694 C98.5783698,18.2410694 98.3253325,18.2911424 98.0999347,18.3912897 C97.8745368,18.4914371 97.6810377,18.6285934 97.5194317,18.8027627 C97.3578257,18.976932 97.2302439,19.1794008 97.1366825,19.4101751 C97.0431211,19.6409495 96.9878357,19.8869599 96.9708245,20.1482139 L100.760042,20.1482139 Z" id="Combined-Shape"></path>
          </g>
        </g>
      </g>
    </g>
  </g>
</svg>
    