<svg width="20px" height="20px" viewBox="0 0 20 20" version="1.1" 
  xmlns="http://www.w3.org/2000/svg" 
  xmlns:xlink="http://www.w3.org/1999/xlink">
  <g id="App" stroke="none" stroke-width="1" fill="none" fill-rule="evenodd">
    <g id="1.1-Sign-in" transform="translate(-852.000000, -321.000000)" fill="#A580FF">
      <g id="Group" transform="translate(600.000000, 0.000000)">
        <g id="Username">
          <g transform="translate(250.000000, 209.000000)">
            <g transform="translate(0.000000, 111.000000)">
              <g transform="translate(2.000000, 0.000000)">
                <g id="Icon">
                  <g id="ic_account_circle_24px" transform="translate(0.000000, 1.000000)">
                    <g id="Group">
                      <path d="M10,0 C4.48,0 0,4.48 0,10 C0,15.52 4.48,20 10,20 C15.52,20 20,15.52 20,10 C20,4.48 15.52,0 10,0 L10,0 Z M10,3 C11.66,3 13,4.34 13,6 C13,7.66 11.66,9 10,9 C8.34,9 7,7.66 7,6 C7,4.34 8.34,3 10,3 L10,3 Z M10,17.2 C7.5,17.2 5.29,15.92 4,13.98 C4.03,11.99 8,10.9 10,10.9 C11.99,10.9 15.97,11.99 16,13.98 C14.71,15.92 12.5,17.2 10,17.2 L10,17.2 Z" id="Shape"></path>
                    </g>
                  </g>
                </g>
              </g>
            </g>
          </g>
        </g>
      </g>
    </g>
  </g>
</svg>