<svg width="86px" height="16px" viewBox="0 0 86 16" version="1.1" 
  xmlns="http://www.w3.org/2000/svg" 
  xmlns:xlink="http://www.w3.org/1999/xlink">
  <g id="App" stroke="none" stroke-width="1" fill="none" fill-rule="evenodd">
    <g id="1.1-Sign-in" transform="translate(-325.000000, -511.000000)" fill="#FFFFFF">
      <g id="Left">
        <g id="Logo" transform="translate(163.000000, 255.000000)">
          <g id="btn-md-stroke-pink" transform="translate(0.000000, 243.000000)">
            <path d="M221.897035,22.7519142 L221.20225,23.4310694 C221.041684,23.5224856 220.881978,23.6286176 220.722703,23.7039802 C220.240142,23.9309598 219.749403,23.9880392 219.313333,23.9880392 C218.849283,23.9880392 218.121783,23.9568239 217.379647,23.400746 C216.348663,22.6484578 215.897957,21.3552535 215.897957,20.2283819 C215.897957,17.8952629 217.731343,16.751 219.226808,16.751 C219.749403,16.751 220.286203,16.8865635 220.722703,17.1724063 C221.448481,17.669621 221.636168,18.3157773 221.740342,18.6618209 L218.325397,20.0910347 L217.207027,20.1811131 C217.569055,22.0941637 218.818289,23.2067654 220.198817,23.2067654 C220.888435,23.2067654 221.400268,22.9735427 221.869915,22.733185 C221.869915,22.733185 221.964188,22.6823487 221.897035,22.7519142 Z M219.836789,18.9467718 C220.114014,18.8424236 220.258222,18.7523452 220.258222,18.5427569 C220.258222,17.9416399 219.60175,17.2473229 218.818289,17.2473229 C218.238011,17.2473229 217.148482,17.7155521 217.148482,19.3414221 C217.148482,19.5951577 217.177755,19.8653929 217.192391,20.135628 L219.836789,18.9467718 Z M214.756772,22.6355258 C214.756772,23.2201434 214.857503,23.3111136 215.334898,23.3570446 C215.583712,23.3873681 215.831664,23.400746 216.077034,23.4310694 L215.539803,23.7623973 L212.979778,23.7623973 C213.315547,23.3111136 213.373231,23.2660744 213.373231,22.9655159 L213.373231,22.6297287 L213.367634,13.6825382 L212.237211,13.6825382 L213.325448,13.1393924 L215.402913,13.1393924 C214.952637,13.4096275 214.817899,13.5741766 214.760216,14.1008229 L214.756772,22.6355258 Z M210.786516,17.4894643 C211.120133,17.7735233 211.816208,18.3764241 211.816208,19.5197951 C211.816208,20.6341806 211.209671,21.1594891 210.597968,21.6567039 C210.410282,21.8524683 210.190741,22.0647321 210.190741,22.3929385 C210.190741,22.7260501 210.410282,22.9066528 210.568266,23.0413244 L211.093013,23.4609469 C211.730974,24.0188085 212.312544,24.5302932 212.312544,25.569316 C212.312544,26.9847059 210.99013,28.4121359 208.491232,28.4121359 C206.386217,28.4121359 205.368577,27.373559 205.368577,26.2600655 C205.368577,25.7182574 205.629014,24.9508075 206.488239,24.4250531 C207.388789,23.8547054 208.608751,23.7784509 209.262209,23.7338576 C209.058165,23.4609469 208.825279,23.1751042 208.825279,22.7086587 C208.825279,22.4535853 208.89932,22.3015223 208.970779,22.1222574 C208.811934,22.1378651 208.651798,22.1539187 208.506298,22.1539187 C206.965634,22.1539187 206.094786,20.9632788 206.094786,19.7900303 C206.094786,19.097943 206.399561,18.3300471 207.02547,17.7735233 C207.8537,17.0671662 208.841206,16.9454266 209.62596,16.9454266 L212.619472,16.9454266 L211.688788,17.4894643 L210.786516,17.4894643 Z M209.757254,24.1699797 C209.638013,24.1539261 209.566554,24.1539261 209.422776,24.1539261 C209.291051,24.1539261 208.506298,24.1833576 207.89847,24.3947297 C207.576906,24.5164692 206.647514,24.8763368 206.647514,25.9452371 C206.647514,27.0119077 207.650948,27.7811414 209.203235,27.7811414 C210.597968,27.7811414 211.338383,27.0886081 211.338383,26.1561632 C211.338383,25.3887133 210.859266,24.9838065 209.757254,24.1699797 Z M210.174813,21.3106602 C210.510582,20.9632788 210.539855,20.4834554 210.539855,20.2109906 C210.539855,19.1287123 209.91696,17.4430873 208.709482,17.4430873 C208.332817,17.4430873 207.924729,17.6388517 207.693134,17.9416399 C207.447334,18.2551305 207.373723,18.6618209 207.373723,19.0529038 C207.373723,20.0607113 207.941087,21.7320665 209.189029,21.7320665 C209.55321,21.7320665 209.94494,21.5487882 210.174813,21.3106602 Z M201.780151,23.9568239 C199.471092,23.9568239 198.235633,22.0941637 198.235633,20.4076468 C198.235633,18.4370709 199.788781,16.751 201.997971,16.751 C204.133549,16.751 205.47103,18.483002 205.47103,20.3015149 C205.47103,22.0776642 204.149046,23.9568239 201.780151,23.9568239 Z M203.596749,22.7394281 C203.948015,22.2578209 204.033249,21.6567039 204.033249,21.0707485 C204.033249,19.745437 203.423699,17.2178914 201.622167,17.2178914 C201.143051,17.2178914 200.66049,17.411872 200.312667,17.7284841 C199.745303,18.2551305 199.644142,18.9168943 199.644142,19.5661721 C199.644142,21.0529112 200.353562,23.5050942 202.114199,23.5050942 C202.682423,23.5050942 203.262271,23.2201434 203.596749,22.7394281 Z M194.049279,23.9568239 C191.739789,23.9568239 190.506483,22.0941637 190.506483,20.4076468 C190.506483,18.4370709 192.060062,16.751 194.26839,16.751 C196.402677,16.751 197.738867,18.483002 197.738867,20.3015149 C197.738867,22.0776642 196.418605,23.9568239 194.049279,23.9568239 Z M195.866307,22.7394281 C196.214991,22.2578209 196.301947,21.6567039 196.301947,21.0707485 C196.301947,19.745437 195.690674,17.2178914 193.890865,17.2178914 C193.410026,17.2178914 192.932631,17.411872 192.583948,17.7284841 C192.015723,18.2551305 191.914992,18.9168943 191.914992,19.5661721 C191.914992,21.0529112 192.627426,23.5050942 194.385048,23.5050942 C194.951982,23.5050942 195.530969,23.2201434 195.866307,22.7394281 Z M189.583118,23.4346369 L187.635656,23.896623 C186.846598,24.0254975 186.138039,24.1387644 185.387724,24.1387644 C181.631413,24.1387644 180.200089,21.2745397 180.200089,19.0328368 C180.200089,16.2952569 182.228049,13.7570089 185.701108,13.7570089 C186.435926,13.7570089 187.142764,13.868938 187.786752,14.0508785 C188.807404,14.3478695 189.284799,14.7139802 189.583118,14.9284737 L188.451833,16.0415213 L187.974869,16.1521126 L188.314943,15.5906835 C187.854336,15.124684 187.007595,14.2644802 185.400638,14.2644802 C183.252145,14.2644802 181.631413,15.9563482 181.631413,18.4263686 C181.631413,21.0792212 183.482018,23.5746597 186.450132,23.5746597 C187.322271,23.5746597 187.771255,23.3931652 188.178913,23.2237108 L188.178913,20.9494549 L186.122542,21.0640595 L187.2125,20.4575913 L190.098394,20.4575913 L189.745406,20.809432 C189.650271,20.8932674 189.637357,20.921807 189.610668,21.034182 C189.596462,21.1626106 189.583118,21.5710848 189.583118,21.7146751 L189.583118,23.4346369 Z M226.084249,22.8161285 L226.084249,26.6489187 L225.349431,26.6489187 L225.349431,16.8959281 L226.084249,16.8959281 L226.084249,18.006746 C226.562936,17.2887946 227.437658,16.7197847 228.453575,16.7197847 C230.275769,16.7197847 231.503049,18.1516741 231.503049,20.4183492 C231.503049,22.6698626 230.275769,24.1316295 228.453575,24.1316295 C227.49448,24.1316295 226.635255,23.619253 226.084249,22.8161285 Z M230.71356,20.4183492 C230.71356,18.7099816 229.853905,17.4069668 228.329599,17.4069668 C227.382988,17.4069668 226.477702,18.1775382 226.084249,18.8495585 L226.084249,21.9715322 C226.477702,22.6448904 227.382988,23.4435556 228.329599,23.4435556 C229.853905,23.4435556 230.71356,22.1293924 230.71356,20.4183492 Z M232.506482,14.2029415 L233.24087,14.2029415 L233.24087,23.955932 L232.506482,23.955932 L232.506482,14.2029415 Z M241.486158,26.01837 C241.64328,26.091057 241.911465,26.1356503 242.081502,26.1356503 C242.530917,26.1356503 242.843871,25.9452371 243.12497,25.2727708 L243.660909,24.0147951 L240.766406,16.8959281 L241.586027,16.8959281 L244.068998,23.0649588 L246.527862,16.8959281 L247.359106,16.8959281 L243.828794,25.5086691 C243.462461,26.3960749 242.886057,26.8228323 242.094416,26.8228323 C241.856795,26.8228323 241.543411,26.779131 241.360029,26.7207138 L241.486158,26.01837 Z M239.339817,23.9349732 C239.290743,23.6901563 239.253722,23.4743249 239.226603,23.2941682 C239.204218,23.1144573 239.191304,22.9307331 239.191304,22.7438874 C238.939477,23.1269435 238.582614,23.4457852 238.126743,23.6968452 C237.670441,23.949689 237.236955,24.0736582 236.642471,24.0736582 C235.926593,24.0736582 235.370852,23.8912718 234.974386,23.5211478 C234.579212,23.1514697 234.380333,22.6506875 234.380333,22.0170174 C234.380333,21.3842391 234.66832,20.8705248 235.242571,20.4776582 C235.816823,20.0830079 236.558959,19.8867976 237.477589,19.8867976 L239.191304,19.8867976 L239.191304,19.0096483 C239.191304,18.5044067 239.025141,18.1070809 238.693246,17.8190084 C238.36006,17.5304901 237.892566,17.3846701 237.286459,17.3846701 C236.73244,17.3846701 236.283025,17.518004 235.940799,17.7775367 C235.601586,18.0424206 235.430688,18.370627 235.430688,18.7661691 L234.678651,18.7661691 L234.663154,18.7282649 C234.636034,18.1949296 234.871503,17.7271463 235.372144,17.3231314 C235.870632,16.9195625 236.52366,16.7166632 237.327354,16.7166632 C238.128465,16.7166632 238.776758,16.916441 239.265345,17.3151047 C239.753502,17.709755 239.998441,18.2801027 239.998441,19.0257019 L239.998441,22.508435 C239.998441,22.7586032 240.010064,23.0002986 240.040197,23.235751 C240.071191,23.4716493 240.120696,23.7071017 240.186558,23.9349732 L239.339817,23.9349732 Z M236.73244,23.3802331 C237.356626,23.3802331 237.805179,23.235751 238.263634,22.9499082 C238.719074,22.6658492 239.029015,22.2952793 239.191304,21.8466711 L239.191304,20.4910362 L237.46941,20.4910362 C236.811647,20.4910362 236.267098,20.6417614 235.838777,20.9458874 C235.409595,21.2491215 235.192206,21.616124 235.192206,22.0428814 C235.192206,22.4455585 235.329957,22.7675218 235.603738,23.0114469 C235.87838,23.2580476 236.253753,23.3802331 236.73244,23.3802331 Z M162.390429,26.6183464 C162.153934,26.5531248 162,26.3127267 162,25.9407215 L162,13.6613788 C162,13.3168453 162.130338,13.0844826 162.336949,13 L168.230687,19.8431033 L162.390429,26.6183464 Z M163.201744,26.3576953 L168.568051,20.2348101 L170.295944,22.2410332 L163.201744,26.3576953 Z M170.344795,17.3905403 L168.57828,19.439863 L163.349461,13.3303049 L170.344795,17.3905403 Z M170.819423,17.666024 L173.55981,19.2566007 C174.078669,19.5577574 174.083414,20.0432186 173.55981,20.3470587 L170.750094,21.9774965 L168.917444,19.8361566 L170.819423,17.666024 Z" id="Combined-Shape"></path>
          </g>
        </g>
      </g>
    </g>
  </g>
</svg>