<svg width="18px" height="21px" viewBox="0 0 18 21" version="1.1" xmlns="http://www.w3.org/2000/svg" xmlns:xlink="http://www.w3.org/1999/xlink">
    <g id="App" stroke="none" stroke-width="1" fill="none" fill-rule="evenodd" opacity="0.300000012">
        <g id="2.1-Posts" transform="translate(-1241.000000, -33.000000)" fill="#000000">
            <g id="Nav">
                <g id="icon-alert" transform="translate(1238.000000, 31.000000)">
                    <g id="Group">
                        <path d="M10.01,21.01 C10.01,22.11 10.9,23 12,23 C13.1,23 13.99,22.11 13.99,21.01 L10.01,21.01 L10.01,21.01 Z M18.88,16.82 L18.88,11 C18.88,7.75 16.63,5.03 13.59,4.31 L13.59,3.59 C13.59,2.71 12.88,2 12,2 C11.12,2 10.41,2.71 10.41,3.59 L10.41,4.31 C7.37,5.03 5.12,7.75 5.12,11 L5.12,16.82 L3,18.94 L3,20 L21,20 L21,18.94 L18.88,16.82 L18.88,16.82 Z" id="Shape"></path>
                    </g>
                </g>
            </g>
        </g>
    </g>
</svg>