<svg width="16px" height="21px" viewBox="0 0 16 21" version="1.1" 
  xmlns="http://www.w3.org/2000/svg" 
  xmlns:xlink="http://www.w3.org/1999/xlink">
  <g id="App" stroke="none" stroke-width="1" fill="none" fill-rule="evenodd">
    <g id="1.1-Sign-in" transform="translate(-854.000000, -403.000000)" fill="#A580FF">
      <g id="Group" transform="translate(600.000000, 0.000000)">
        <g id="Password">
          <g transform="translate(250.000000, 209.000000)">
            <g transform="translate(0.000000, 193.000000)">
              <g transform="translate(4.000000, 0.000000)">
                <g id="Group" transform="translate(0.000000, 0.500000)">
                  <g id="ic_https_24px" transform="translate(0.000000, 0.500000)">
                    <g id="Group">
                      <path d="M14,7 L13,7 L13,5 C13,2.24 10.76,0 8,0 C5.24,0 3,2.24 3,5 L3,7 L2,7 C0.9,7 0,7.9 0,9 L0,19 C0,20.1 0.9,21 2,21 L14,21 C15.1,21 16,20.1 16,19 L16,9 C16,7.9 15.1,7 14,7 L14,7 Z M8,16 C6.9,16 6,15.1 6,14 C6,12.9 6.9,12 8,12 C9.1,12 10,12.9 10,14 C10,15.1 9.1,16 8,16 L8,16 Z M11.1,7 L4.9,7 L4.9,5 C4.9,3.29 6.29,1.9 8,1.9 C9.71,1.9 11.1,3.29 11.1,5 L11.1,7 L11.1,7 Z" id="Shape"></path>
                    </g>
                  </g>
                </g>
              </g>
            </g>
          </g>
        </g>
      </g>
    </g>
  </g>
</svg>