<?xml version="1.0" encoding="UTF-8"?>
<svg width="18px" height="18px" viewBox="0 0 18 18" version="1.1" xmlns="http://www.w3.org/2000/svg" xmlns:xlink="http://www.w3.org/1999/xlink">
    <!-- Generator: Sketch 52.6 (67491) - http://www.bohemiancoding.com/sketch -->
    <title>Shape</title>
    <desc>Created with Sketch.</desc>
    <defs>
        <linearGradient x1="0%" y1="6.88802083%" x2="100%" y2="100%" id="linearGradient-1">
            <stop stop-color="#C468FF" offset="0%"></stop>
            <stop stop-color="#6E91F6" offset="100%"></stop>
        </linearGradient>
    </defs>
    <g id="App" stroke="none" stroke-width="1" fill="none" fill-rule="evenodd">
        <g id="2.1-Posts" transform="translate(-260.000000, -32.000000)" fill="url(#linearGradient-1)">
            <g id="Nav">
                <g id="Group" transform="translate(260.000000, 29.000000)">
                    <g transform="translate(0.000000, 2.000000)" id="icon-posts">
                        <g transform="translate(0.000000, 1.000000)">
                            <g id="Group">
                                <path d="M0,10 L8,10 L8,0 L0,0 L0,10 L0,10 Z M0,18 L8,18 L8,12 L0,12 L0,18 L0,18 Z M10,18 L18,18 L18,8 L10,8 L10,18 L10,18 Z M10,0 L10,6 L18,6 L18,0 L10,0 L10,0 Z" id="Shape"></path>
                            </g>
                        </g>
                    </g>
                </g>
            </g>
        </g>
    </g>
</svg>